M48
INCH
T01C0.02
T02C0.0276
T03C0.03
T04C0.0315
T05C0.032
T06C0.0354
T07C0.0394
T08C0.04
T09C0.0413
T10C0.0433
T11C0.0472
T12C0.0669
T13C0.129
%
T01
X+008300Y+046550
X+009300Y+046600
X+010200Y+046150
X+010850Y+045200
X+010900Y+044400
X+012100Y+044400
X+012100Y+045550
X+011950Y+046750
X+014050Y+045850
X+014050Y+044350
X+014800Y+043300
X+015800Y+042700
X+017050Y+042650
X+017950Y+042650
X+018600Y+042000
X+019600Y+041150
X+020200Y+042750
X+019450Y+043500
X+020500Y+044100
X+021550Y+043000
X+022800Y+042950
X+022800Y+044050
X+022800Y+045400
X+022800Y+046400
X+020500Y+045750
X+018500Y+044300
X+017050Y+044400
X+016000Y+044500
X+016000Y+045850
X+016050Y+046750
X+013300Y+043250
X+012500Y+042750
X+010850Y+042750
X+010550Y+041700
X+009000Y+041200
X+007650Y+041150
X+005850Y+041100
X+004400Y+041600
X+003250Y+041700
X+002350Y+042600
X+000850Y+041950
X+001050Y+038750
X+002450Y+038800
X+003350Y+039850
X+004600Y+042800
X+006000Y+042900
X+007700Y+042950
X+009150Y+042950
X+009150Y+043750
X+009100Y+044750
X+007800Y+044800
X+006800Y+045200
X+005500Y+045200
X+004600Y+045650
X+011700Y+038900
X+012850Y+037950
X+013950Y+037500
X+012500Y+036650
X+011250Y+037050
X+010550Y+035450
X+012250Y+035200
X+013800Y+035200
X+015650Y+035200
X+015950Y+033650
X+014950Y+033100
X+016500Y+032400
X+017550Y+032550
X+017600Y+033650
X+017550Y+035300
X+016900Y+036600
X+015650Y+036800
X+015850Y+038350
X+015700Y+039550
X+013200Y+039550
X+018050Y+037700
X+019550Y+036450
X+021550Y+036400
X+022700Y+036000
X+023150Y+034900
X+024550Y+035200
X+025800Y+036000
X+026950Y+036100
X+026350Y+037250
X+027600Y+037950
X+028350Y+038900
X+027600Y+039700
X+026300Y+039100
X+025250Y+038950
X+023550Y+039550
X+024050Y+040850
X+022800Y+041100
X+021550Y+040850
X+021450Y+039600
X+021100Y+038200
X+018850Y+039550
X+020950Y+034500
X+021400Y+033100
X+023200Y+033150
X+023750Y+032450
X+024550Y+031600
X+023800Y+030750
X+023400Y+030150
X+022200Y+030800
X+021350Y+030150
X+020400Y+029250
X+019000Y+029250
X+017300Y+029150
X+016800Y+027700
X+017450Y+026250
X+018450Y+024900
X+018450Y+023050
X+017850Y+022550
X+019200Y+021550
X+020500Y+022550
X+020550Y+024200
X+022450Y+024300
X+023900Y+024300
X+025300Y+024350
X+026700Y+024550
X+028100Y+025300
X+027050Y+027100
X+026150Y+026100
X+025700Y+027900
X+025850Y+028750
X+025000Y+030050
X+024100Y+028750
X+023100Y+027900
X+023500Y+026550
X+021450Y+026500
X+024000Y+022900
X+025200Y+021500
X+025950Y+020050
X+024900Y+018350
X+026100Y+017250
X+025100Y+016350
X+024100Y+015450
X+023600Y+014150
X+023800Y+012550
X+022500Y+012250
X+021300Y+012350
X+019850Y+011550
X+019400Y+009900
X+018750Y+008550
X+018794Y+007200
X+016700Y+006250
X+016850Y+005100
X+015500Y+004950
X+016350Y+003300
X+014200Y+003150
X+013050Y+004300
X+012350Y+002950
X+010600Y+002900
X+010550Y+004250
X+008150Y+005550
X+008000Y+006750
X+009100Y+007600
X+010750Y+007750
X+012350Y+008350
X+012350Y+006600
X+014600Y+006900
X+015550Y+009400
X+016750Y+008500
X+017350Y+009900
X+015600Y+013200
X+013850Y+013600
X+012100Y+012700
X+011000Y+013100
X+010700Y+012350
X+010100Y+011700
X+009050Y+010100
X+009900Y+009700
X+007800Y+011500
X+006150Y+011450
X+006750Y+010150
X+006300Y+009050
X+007100Y+008300
X+005400Y+007700
X+003950Y+007600
X+002850Y+008500
X+001800Y+008300
X+002050Y+007000
X+000800Y+005900
X+002850Y+005150
X+004700Y+005800
X+004800Y+004300
X+006400Y+004800
X+007800Y+004150
X+007100Y+002450
X+007400Y+000900
X+008700Y+002100
X+011600Y+001050
X+013900Y+001150
X+016450Y+001050
X+018200Y+001050
X+020300Y+002000
X+019950Y+002600
X+020500Y+004745
X+020750Y+005800
X+021881Y+005200
X+022250Y+005800
X+022250Y+008000
X+021150Y+008450
X+021900Y+009800
X+024150Y+010650
X+025800Y+009400
X+026350Y+009800
X+027450Y+009650
X+029050Y+010200
X+030000Y+012150
X+030900Y+013250
X+029950Y+013600
X+028650Y+013150
X+028950Y+014750
X+027550Y+014400
X+027400Y+015550
X+028900Y+016250
X+030250Y+015850
X+031650Y+014800
X+033650Y+014750
X+035200Y+013800
X+035150Y+012800
X+034400Y+011550
X+032950Y+011200
X+033750Y+009650
X+033000Y+008400
X+034350Y+007750
X+033100Y+006900
X+031650Y+006450
X+031400Y+008400
X+031300Y+010100
X+028050Y+008050
X+029050Y+006800
X+028200Y+005150
X+026800Y+005000
X+027150Y+003300
X+029050Y+003800
X+029150Y+002050
X+029550Y+001100
X+027250Y+001050
X+025550Y+001100
X+023550Y+002000
X+025006Y+007300
X+025000Y+007950
X+026850Y+006800
X+026250Y+012150
X+022200Y+015550
X+021100Y+016600
X+022050Y+017550
X+023150Y+018250
X+022700Y+018900
X+023700Y+020300
X+020600Y+020550
X+020050Y+017650
X+019100Y+016550
X+018750Y+015150
X+019950Y+013950
X+016450Y+015750
X+017150Y+017250
X+015050Y+017250
X+014700Y+016350
X+013450Y+016400
X+013200Y+017750
X+014250Y+018400
X+014100Y+019300
X+012850Y+019300
X+012900Y+021350
X+013800Y+022350
X+014750Y+021350
X+016100Y+022150
X+014800Y+023350
X+013150Y+024350
X+012650Y+025800
X+013200Y+027050
X+014600Y+027550
X+013700Y+028650
X+015650Y+029200
X+014800Y+030700
X+015700Y+031500
X+016600Y+030750
X+017850Y+030800
X+018800Y+031300
X+019750Y+031650
X+019550Y+032450
X+025050Y+033150
X+026000Y+034150
X+027450Y+034100
X+028050Y+035100
X+028450Y+036900
X+029400Y+037850
X+030150Y+039100
X+031150Y+039100
X+032150Y+038200
X+031200Y+037300
X+032550Y+040050
X+033350Y+041550
X+032400Y+041950
X+031300Y+041550
X+030350Y+041550
X+030150Y+040700
X+028850Y+041000
X+027600Y+041800
X+026300Y+040800
X+025150Y+041900
X+026054Y+042450
X+026050Y+043000
X+025100Y+044000
X+026300Y+044400
X+027450Y+043900
X+028700Y+043700
X+029450Y+042650
X+030250Y+044350
X+030300Y+045450
X+031500Y+044650
X+032750Y+044050
X+033250Y+045250
X+034250Y+045550
X+035850Y+045550
X+037800Y+046350
X+038200Y+045000
X+039400Y+043750
X+039350Y+041700
X+040550Y+041750
X+041400Y+042550
X+042800Y+042000
X+042700Y+038850
X+041350Y+038800
X+040300Y+039850
X+039500Y+037900
X+040350Y+037100
X+039200Y+036300
X+039600Y+035300
X+038700Y+034250
X+037200Y+034300
X+036150Y+035250
X+036750Y+036150
X+038000Y+035900
X+037900Y+037550
X+035950Y+037600
X+034900Y+036800
X+034200Y+038200
X+034250Y+039750
X+035800Y+039900
X+035950Y+041700
X+037750Y+041650
X+036800Y+043650
X+034420Y+043750
X+031250Y+043250
X+032250Y+046400
X+028800Y+045500
X+027400Y+045450
X+027000Y+046350
X+025250Y+046350
X+025200Y+045450
X+024050Y+042950
X+024550Y+037050
X+026400Y+032750
X+027650Y+031900
X+028400Y+032750
X+028850Y+031150
X+028350Y+029950
X+027400Y+029050
X+026650Y+030200
X+030350Y+031550
X+031650Y+031000
X+031000Y+030100
X+031850Y+029100
X+033050Y+028650
X+033100Y+030950
X+034550Y+030550
X+035950Y+030050
X+037050Y+030450
X+036700Y+032100
X+035600Y+031700
X+035700Y+033000
X+033950Y+033550
X+032950Y+032600
X+031700Y+032700
X+031700Y+034050
X+038800Y+031750
X+039500Y+030450
X+040250Y+031100
X+041400Y+030500
X+040400Y+029000
X+038750Y+029000
X+037200Y+026500
X+037400Y+024850
X+037250Y+023150
X+037250Y+021500
X+037200Y+020400
X+037500Y+019100
X+038650Y+019850
X+039100Y+020700
X+039100Y+022050
X+041750Y+022100
X+041700Y+020650
X+039850Y+019050
X+038700Y+018300
X+039550Y+017050
X+038700Y+016150
X+038100Y+014800
X+038650Y+013600
X+037650Y+012800
X+036750Y+013100
X+037350Y+011500
X+037350Y+010100
X+038300Y+009050
X+038350Y+007700
X+039800Y+007450
X+040550Y+008900
X+039950Y+010150
X+039150Y+011550
X+040850Y+013200
X+041850Y+014500
X+042700Y+012950
X+041950Y+010100
X+042000Y+007500
X+040500Y+005200
X+039550Y+004150
X+037850Y+003950
X+037400Y+005200
X+038350Y+006200
X+036050Y+007500
X+036650Y+008350
X+035300Y+009000
X+035300Y+010100
X+035250Y+006450
X+035250Y+005250
X+035300Y+003950
X+033950Y+003300
X+031500Y+003300
X+035500Y+001350
X+036650Y+002450
X+038350Y+002400
X+040000Y+002350
X+039750Y+001050
X+042950Y+004700
X+040000Y+014900
X+041350Y+016600
X+042350Y+017600
X+036200Y+016400
X+032800Y+016750
X+032800Y+018200
X+031100Y+018350
X+030700Y+017600
X+029500Y+018550
X+029600Y+019200
X+030400Y+019200
X+029150Y+017650
X+027800Y+017300
X+028000Y+018700
X+026450Y+022550
X+027600Y+023000
X+029100Y+023350
X+029950Y+024200
X+031350Y+023950
X+031950Y+025000
X+033100Y+025850
X+034650Y+026600
X+035450Y+024850
X+034000Y+024200
X+033800Y+022500
X+033050Y+021950
X+032400Y+022700
X+033800Y+021150
X+034700Y+021400
X+036000Y+021350
X+040200Y+025100
X+041500Y+024300
X+042950Y+024050
X+042950Y+026300
X+041600Y+026300
X+040050Y+033150
X+023750Y+017150
X+011850Y+014800
X+009450Y+014750
X+009150Y+013800
X+008000Y+013850
X+007150Y+013050
X+006350Y+013700
X+005700Y+014450
X+005650Y+015650
X+005500Y+016900
X+006150Y+018250
X+006300Y+019050
X+005100Y+018350
X+003950Y+019100
X+003450Y+018100
X+003950Y+016850
X+002100Y+016700
X+001850Y+015750
X+001900Y+014250
X+002650Y+013300
X+003550Y+012350
X+004550Y+011450
X+004600Y+010100
X+004500Y+009150
X+003250Y+010850
X+002050Y+010750
X+002050Y+012000
X+000900Y+012400
X+001050Y+017700
X+001150Y+020200
X+003350Y+020650
X+003250Y+022000
X+005200Y+022200
X+006050Y+021350
X+005200Y+020550
X+005050Y+019800
X+007750Y+018200
X+007400Y+017250
X+008000Y+016500
X+008950Y+015750
X+010900Y+018250
X+011150Y+020450
X+010300Y+021300
X+009900Y+020400
X+008150Y+021200
X+009800Y+023050
X+009450Y+024150
X+010500Y+025250
X+011450Y+024650
X+011300Y+022450
X+008300Y+025150
X+007150Y+025550
X+005750Y+026150
X+005400Y+024850
X+003700Y+025200
X+002450Y+025850
X+002200Y+024550
X+000850Y+026250
X+003200Y+029000
X+004100Y+030000
X+003700Y+031200
X+005600Y+031200
X+006100Y+029900
X+005100Y+029000
X+007750Y+029400
X+007400Y+030850
X+006600Y+032300
X+006600Y+033900
X+005250Y+035050
X+004200Y+034050
X+004950Y+032900
X+001150Y+031750
X+002150Y+029900
X+007750Y+027300
X+009450Y+026350
X+010700Y+027350
X+009400Y+028550
X+009400Y+030200
X+010700Y+029950
X+010900Y+032250
X+009400Y+032250
X+009400Y+033900
X+013350Y+032300
X+013900Y+031500
X+014450Y+025650
X+001100Y+022500
X+012700Y+010800
X+005450Y+002500
X+005150Y+000900
X+003700Y+002150
X+001900Y+002150
X+001250Y+003300
T02
X+041250Y+005800
X+041250Y+006300
X+041250Y+006800
X+034250Y+006800
X+034250Y+006300
X+034250Y+005800
X+026650Y+020850
X+026650Y+021350
X+026650Y+021850
X+017100Y+021850
X+017100Y+021350
X+017100Y+020850
X+010000Y+006850
X+010000Y+006350
X+010000Y+005850
X+003050Y+005800
X+003050Y+006300
X+003050Y+006800
T03
X+040950Y+002296
X+039200Y+002350
X+037500Y+002350
X+035800Y+002350
X+032200Y+002350
X+027500Y+002346
X+027500Y+004314
X+032200Y+008350
X+035800Y+008350
X+037500Y+008350
X+039200Y+008350
X+042750Y+008350
X+040950Y+004264
X+042750Y+002350
X+042600Y+013900
X+036600Y+013900
X+038550Y+021350
X+032550Y+021350
X+031700Y+021350
X+029950Y+021346
X+028150Y+021350
X+029950Y+023314
X+031700Y+027350
X+028150Y+027350
X+026300Y+029425
X+023776Y+031574
X+026300Y+035425
X+023776Y+037574
X+016526Y+037574
X+014776Y+037574
X+014776Y+031574
X+016526Y+031574
X+015600Y+027350
X+012050Y+027350
X+013800Y+023314
X+013800Y+021346
X+012050Y+021350
X+011200Y+021350
X+015600Y+021350
X+019150Y+019750
X+021050Y+019750
X+022700Y+019750
X+024600Y+019750
X+024600Y+025750
X+022700Y+025750
X+021050Y+025750
X+019150Y+025750
X+020950Y+013900
X+022800Y+013900
X+028800Y+013900
X+014950Y+013900
X+011550Y+008350
X+007950Y+008350
X+006250Y+008350
X+004550Y+008350
X+001000Y+008350
X+002800Y+004269
X+002800Y+002300
X+004550Y+002350
X+006250Y+002350
X+007950Y+002350
X+011550Y+002350
X+016250Y+002346
X+016250Y+004314
X+007150Y+013900
X+001150Y+013900
X+005200Y+021350
X+001000Y+002350
X+039450Y+031150
X+039450Y+037150
T04
X+037410Y+015556
X+037410Y+016344
X+028160Y+016344
X+028160Y+015556
X+022362Y+018250
X+021378Y+018250
X+015594Y+016344
X+015594Y+015556
X+006340Y+015556
X+006340Y+016344
X+021358Y+027258
X+022342Y+027258
T05
X+037600Y+028950
X+041600Y+028950
X+006150Y+028950
X+002150Y+028950
T06
X+027600Y+036925
X+027600Y+038894
X+029750Y+034294
X+029750Y+032325
X+034800Y+032325
X+034800Y+034294
X+036700Y+036956
X+036700Y+038925
T07
X+015026Y+046324
X+013026Y+046324
X+007026Y+046324
X+005526Y+046324
X+003700Y+046350
X+001150Y+040000
X+001150Y+030600
X+001150Y+028950
X+001150Y+027450
X+003050Y+027850
X+004050Y+027850
X+005050Y+027850
X+005050Y+026850
X+004050Y+026850
X+003050Y+026850
X+001150Y+021350
X+004701Y+019077
X+005488Y+019077
X+007063Y+019077
X+009425Y+019077
X+010213Y+019077
X+011000Y+019077
X+011787Y+019077
X+014937Y+019077
X+016512Y+019077
X+017299Y+019077
X+013719Y+014780
X+011750Y+015764
X+010250Y+015769
X+010250Y+013800
X+011750Y+013796
X+008281Y+014784
X+017750Y+007900
X+019750Y+007900
X+023750Y+007800
X+026150Y+007850
X+024300Y+001150
X+022750Y+001150
X+021000Y+001150
X+019500Y+001150
X+015150Y+001150
X+002800Y+001150
X+001150Y+001150
X+028450Y+001150
X+040950Y+001100
X+042600Y+001150
X+035469Y+014780
X+033500Y+015764
X+032000Y+015764
X+032000Y+013796
X+033500Y+013796
X+030031Y+014780
X+031175Y+019077
X+031963Y+019077
X+032750Y+019077
X+033537Y+019077
X+036687Y+019077
X+038262Y+019077
X+039049Y+019077
X+042600Y+021350
X+040700Y+026850
X+040700Y+027850
X+039700Y+027850
X+038700Y+027850
X+038700Y+026850
X+039700Y+026850
X+042600Y+027450
X+042600Y+028950
X+042600Y+030600
X+042600Y+040000
X+040050Y+046350
X+036675Y+046350
X+035050Y+046350
X+033425Y+046350
X+031050Y+046350
X+029550Y+046350
X+028050Y+046350
X+024050Y+046350
X+021550Y+046350
X+019526Y+046324
X+026451Y+019077
X+027238Y+019077
X+028813Y+019077
T08
X+041350Y+031850
X+042350Y+025200
X+034350Y+025200
X+041350Y+039850
X+009400Y+025200
X+001400Y+025200
X+002400Y+031850
X+005276Y+034074
X+002400Y+039850
X+005276Y+042074
T09
X+042629Y+010780
X+033771Y+010780
X+032029Y+010780
X+023171Y+010780
X+020579Y+010779
X+011721Y+010779
X+009979Y+010779
X+001121Y+010779
T10
X+041400Y+041686
X+041400Y+043654
X+033284Y+042441
X+031316Y+042441
X+031166Y+038191
X+033134Y+038191
X+023350Y+029250
X+022350Y+029250
X+021350Y+029250
X+018216Y+029234
X+018216Y+027266
X+018526Y+033324
X+019526Y+033324
X+020526Y+033324
X+019526Y+035574
X+019526Y+037542
X+017050Y+040597
X+017050Y+043550
X+010050Y+043550
X+010050Y+040597
X+010050Y+036050
X+010050Y+033097
X+002350Y+041686
X+002350Y+043654
X+014600Y+007919
X+014600Y+005950
X+029150Y+005946
X+029150Y+007914
T11
X+027495Y+030120
X+031845Y+030120
X+038000Y+030700
X+038000Y+035050
X+022276Y+033074
X+022202Y+031598
X+017851Y+031598
X+022276Y+037424
T12
X+021559Y+044059
X+021559Y+041891
X+024050Y+041883
X+024050Y+044050
T13
X+010000Y+001500
X+033750Y+001500
X+042250Y+046000
X+001500Y+046000
T00
M30
