G04 DipTrace 2.4.0.2*
%INMacro_Amp.GBS*%
%MOIN*%
%ADD28R,0.0669X0.0669*%
%ADD29C,0.0669*%
%ADD43R,0.0748X0.0748*%
%ADD44C,0.0748*%
%ADD49C,0.129*%
%ADD61C,0.1064*%
%ADD64C,0.0828*%
%ADD65R,0.0828X0.0828*%
%ADD66O,0.0671X0.069*%
%ADD68C,0.068*%
%ADD69C,0.108*%
%ADD70C,0.083*%
%ADD71O,0.0867X0.0474*%
%ADD72C,0.0789*%
%ADD73R,0.0789X0.0789*%
%ADD74C,0.1182*%
%ADD75R,0.1182X0.1182*%
%ADD76C,0.1261*%
%ADD79C,0.088*%
%ADD80C,0.0611*%
%ADD81R,0.0611X0.0611*%
%ADD82C,0.0907*%
%ADD83C,0.0808*%
%ADD84R,0.0808X0.0808*%
%FSLAX44Y44*%
G04*
G70*
G90*
G75*
G01*
%LNBotMask*%
%LPD*%
D84*
X41400Y41686D3*
D83*
Y43654D3*
D82*
X42629Y10780D3*
X33771D3*
D81*
X37410Y15556D3*
D80*
Y16344D3*
D79*
X40950Y2296D3*
Y4264D3*
D82*
X32029Y10780D3*
X23171D3*
D81*
X28160Y15556D3*
D80*
Y16344D3*
D84*
X17050Y43550D3*
D83*
Y40597D3*
D43*
X10050Y43550D3*
D44*
Y40597D3*
D43*
Y33097D3*
D44*
Y36050D3*
D84*
X18216Y27266D3*
D83*
Y29234D3*
D84*
X14600Y5950D3*
D83*
Y7919D3*
D28*
X27600Y36925D3*
D29*
Y38894D3*
D81*
X22342Y27258D3*
D80*
X21358D3*
D81*
X21378Y18250D3*
D80*
X22362D3*
D79*
X29950Y21346D3*
Y23314D3*
D84*
X2350Y41686D3*
D83*
Y43654D3*
D82*
X1121Y10779D3*
X9979D3*
D81*
X6340Y15556D3*
D80*
Y16344D3*
D79*
X2800Y2300D3*
Y4269D3*
D82*
X11721Y10779D3*
X20579D3*
D81*
X15594Y15556D3*
D80*
Y16344D3*
D79*
X13800Y21346D3*
Y23314D3*
D84*
X19526Y35574D3*
D83*
Y37542D3*
D84*
X29150Y5946D3*
D83*
Y7914D3*
D79*
X27500Y2346D3*
Y4314D3*
X16250Y2346D3*
Y4314D3*
D84*
X31166Y38191D3*
D83*
X33134D3*
D84*
X31316Y42441D3*
D83*
X33284D3*
D28*
X36700Y38925D3*
D29*
Y36956D3*
D28*
X29750Y32325D3*
D29*
Y34294D3*
D28*
X34800D3*
D29*
Y32325D3*
D76*
X15026Y46324D3*
X13026D3*
D75*
X21559Y44059D3*
D74*
Y41891D3*
D75*
X24050Y44050D3*
D74*
Y41883D3*
D73*
X27495Y30120D3*
D72*
X31845D3*
D73*
X38000Y30700D3*
D72*
Y35050D3*
D73*
X17851Y31598D3*
D72*
X22202D3*
D73*
X22276Y33074D3*
D72*
Y37424D3*
D76*
X31050Y46350D3*
X33425D3*
X21550D3*
X24050D3*
X19526Y46324D3*
X22750Y1150D3*
X40950Y1100D3*
X24300Y1150D3*
X42600D3*
X26150Y7850D3*
X23750Y7800D3*
X28450Y1150D3*
X42600Y28950D3*
Y27450D3*
Y21350D3*
Y40000D3*
X40050Y46350D3*
X7026Y46324D3*
X5526D3*
X35050Y46350D3*
X28050D3*
X36675D3*
X29550D3*
G36*
X41562Y5563D2*
X41684Y5685D1*
Y5915D1*
X41562Y6037D1*
X40938D1*
X40816Y5915D1*
Y5685D1*
X40938Y5563D1*
X41562D1*
G37*
D71*
X41250Y6300D3*
Y6800D3*
G36*
X34562Y5563D2*
X34684Y5685D1*
Y5915D1*
X34562Y6037D1*
X33938D1*
X33816Y5915D1*
Y5685D1*
X33938Y5563D1*
X34562D1*
G37*
D71*
X34250Y6300D3*
Y6800D3*
G36*
X26338Y22087D2*
X26216Y21965D1*
Y21735D1*
X26338Y21613D1*
X26962D1*
X27084Y21735D1*
Y21965D1*
X26962Y22087D1*
X26338D1*
G37*
D71*
X26650Y21350D3*
Y20850D3*
G36*
X3362Y5563D2*
X3484Y5685D1*
Y5915D1*
X3362Y6037D1*
X2738D1*
X2616Y5915D1*
Y5685D1*
X2738Y5563D1*
X3362D1*
G37*
D71*
X3050Y6300D3*
Y6800D3*
G36*
X10312Y5613D2*
X10434Y5735D1*
Y5965D1*
X10312Y6087D1*
X9688D1*
X9566Y5965D1*
Y5735D1*
X9688Y5613D1*
X10312D1*
G37*
D71*
X10000Y6350D3*
Y6850D3*
G36*
X16788Y22087D2*
X16666Y21965D1*
Y21735D1*
X16788Y21613D1*
X17412D1*
X17534Y21735D1*
Y21965D1*
X17412Y22087D1*
X16788D1*
G37*
D71*
X17100Y21350D3*
Y20850D3*
D70*
X37600Y28950D3*
X41600D3*
D69*
X41350Y31850D3*
Y39850D3*
X34350Y25200D3*
X42350D3*
D68*
X35800Y8350D3*
Y2350D3*
X24600Y19750D3*
Y25750D3*
X38550Y21350D3*
X32550D3*
X36600Y13900D3*
X42600D3*
X42750Y2350D3*
Y8350D3*
X37500Y2350D3*
Y8350D3*
X39200D3*
Y2350D3*
D70*
X6150Y28950D3*
X2150D3*
D69*
X2400Y31850D3*
Y39850D3*
D68*
X28800Y13900D3*
X22800D3*
D69*
X9400Y25200D3*
X1400D3*
D68*
X32200Y2350D3*
Y8350D3*
X7950D3*
Y2350D3*
D69*
X5276Y42074D3*
Y34074D3*
D68*
X14776Y37574D3*
Y31574D3*
X21050Y25750D3*
Y19750D3*
X22700Y25750D3*
Y19750D3*
X28150Y27350D3*
Y21350D3*
X31700Y27350D3*
Y21350D3*
X26300Y35425D3*
Y29425D3*
X19150Y19750D3*
Y25750D3*
X5200Y21350D3*
X11200D3*
X7150Y13900D3*
X1150D3*
X1000Y2350D3*
Y8350D3*
X6250Y2350D3*
Y8350D3*
X4550D3*
Y2350D3*
X14950Y13900D3*
X20950D3*
X11550Y2350D3*
Y8350D3*
X15600Y27350D3*
Y21350D3*
X12050Y27350D3*
Y21350D3*
X23776Y37574D3*
Y31574D3*
X16526D3*
Y37574D3*
X39450Y37150D3*
Y31150D3*
D76*
X21000Y1150D3*
X2800D3*
X19500D3*
X1150D3*
X17750Y7900D3*
X19750D3*
X15150Y1150D3*
X1150Y28950D3*
Y27450D3*
Y21350D3*
Y40000D3*
X3700Y46350D3*
D68*
X5050Y27850D3*
X4050D3*
X3050D3*
X5050Y26850D3*
X4050D3*
X3050D3*
D66*
X4701Y19077D3*
X5488D3*
X7063D3*
X9425D3*
X10213D3*
X11000D3*
X11787D3*
X14937D3*
X16512D3*
X17299D3*
D68*
X40700Y27850D3*
X39700D3*
X38700D3*
X40700Y26850D3*
X39700D3*
X38700D3*
D66*
X26451Y19077D3*
X27238D3*
X28813D3*
X31175D3*
X31963D3*
X32750D3*
X33537D3*
X36687D3*
X38262D3*
X39049D3*
D65*
X18526Y33324D3*
D64*
X19526D3*
X20526D3*
D65*
X21350Y29250D3*
D64*
X22350D3*
X23350D3*
D76*
X42600Y30600D3*
X1150D3*
D61*
X33500Y15764D3*
Y13796D3*
X35469Y14780D3*
X32000Y13796D3*
Y15764D3*
X30031Y14780D3*
X10250Y13800D3*
Y15769D3*
X8281Y14784D3*
X11750Y15764D3*
Y13796D3*
X13719Y14780D3*
D49*
X10000Y1500D3*
X33750D3*
X1500Y46000D3*
X42250D3*
M02*
