G04 DipTrace 2.4.0.2*
%INMacro_Amp.GBO*%
%MOIN*%
%ADD10C,0.0098*%
%ADD12C,0.003*%
%ADD86C,0.0046*%
%FSLAX44Y44*%
G04*
G70*
G90*
G75*
G01*
%LNBotSilk*%
%LPD*%
X1807Y18487D2*
D10*
X20193D1*
Y11794D1*
X1807D1*
Y18487D1*
X6768Y14766D2*
X8343D1*
Y15514D1*
X6768D1*
Y14766D1*
X13657Y15514D2*
X15232D1*
Y14766D1*
X13657D1*
Y15514D1*
X6275Y13959D2*
X8834D1*
Y16321D1*
X6275D1*
Y13959D1*
X13166D2*
X15725D1*
Y16321D1*
X13166D1*
Y13959D1*
X7064Y17699D2*
Y16321D1*
X14936Y17798D2*
Y16321D1*
Y13959D2*
Y11794D1*
X13953Y16321D2*
Y18487D1*
Y13959D2*
Y11794D1*
X7064Y13959D2*
Y11794D1*
X8047Y13959D2*
Y11794D1*
Y16321D2*
Y18487D1*
X11000Y17798D2*
Y15927D1*
X9623D2*
X12377D1*
Y11794D1*
X9623Y15927D2*
Y11794D1*
X1945Y15140D2*
X20055D1*
X6788Y14786D2*
X8323Y15494D1*
Y14786D2*
X6788Y15494D1*
X13677Y14786D2*
X15174Y15494D1*
X15212Y14786D2*
X13677Y15494D1*
X23557Y18487D2*
X41943D1*
Y11794D1*
X23557D1*
Y18487D1*
X28518Y14766D2*
X30093D1*
Y15514D1*
X28518D1*
Y14766D1*
X35407Y15514D2*
X36982D1*
Y14766D1*
X35407D1*
Y15514D1*
X28025Y13959D2*
X30584D1*
Y16321D1*
X28025D1*
Y13959D1*
X34916D2*
X37475D1*
Y16321D1*
X34916D1*
Y13959D1*
X28814Y17699D2*
Y16321D1*
X36686Y17798D2*
Y16321D1*
Y13959D2*
Y11794D1*
X35703Y16321D2*
Y18487D1*
Y13959D2*
Y11794D1*
X28814Y13959D2*
Y11794D1*
X29797Y13959D2*
Y11794D1*
Y16321D2*
Y18487D1*
X32750Y17798D2*
Y15927D1*
X31373D2*
X34127D1*
Y11794D1*
X31373Y15927D2*
Y11794D1*
X23695Y15140D2*
X41805D1*
X28538Y14786D2*
X30073Y15494D1*
Y14786D2*
X28538Y15494D1*
X35427Y14786D2*
X36924Y15494D1*
X36962Y14786D2*
X35427Y15494D1*
X10835Y19675D2*
D12*
Y19532D1*
X10845Y19503D1*
X10864Y19484D1*
X10893Y19474D1*
X10912D1*
X10940Y19484D1*
X10960Y19503D1*
X10969Y19532D1*
Y19675D1*
X11041Y19627D2*
Y19637D1*
X11050Y19656D1*
X11060Y19665D1*
X11079Y19675D1*
X11117D1*
X11136Y19665D1*
X11146Y19656D1*
X11155Y19637D1*
Y19618D1*
X11146Y19598D1*
X11127Y19570D1*
X11031Y19474D1*
X11165D1*
X32580Y19675D2*
Y19532D1*
X32590Y19503D1*
X32609Y19484D1*
X32638Y19474D1*
X32657D1*
X32686Y19484D1*
X32705Y19503D1*
X32714Y19532D1*
Y19675D1*
X32872Y19474D2*
Y19675D1*
X32776Y19541D1*
X32920D1*
X4692Y17899D2*
D86*
X4878D1*
Y18201D1*
Y18043D2*
X4764D1*
X4599Y17957D2*
X4570Y17942D1*
X4527Y17900D1*
Y18201D1*
X5478Y17899D2*
X5665D1*
Y18201D1*
Y18043D2*
X5550D1*
X5386Y17957D2*
X5357Y17942D1*
X5314Y17900D1*
Y18201D1*
X7055Y17971D2*
X7069Y17942D1*
X7098Y17914D1*
X7127Y17899D1*
X7184D1*
X7213Y17914D1*
X7241Y17942D1*
X7256Y17971D1*
X7270Y18014D1*
Y18086D1*
X7256Y18129D1*
X7241Y18158D1*
X7213Y18186D1*
X7184Y18201D1*
X7127D1*
X7098Y18186D1*
X7069Y18158D1*
X7055Y18129D1*
Y18086D1*
X7127D1*
X6962Y17957D2*
X6934Y17942D1*
X6890Y17900D1*
Y18201D1*
X9416Y18299D2*
X9531Y17998D1*
X9646Y18299D1*
X9603Y18199D2*
X9459D1*
X9323Y18056D2*
X9294Y18041D1*
X9251Y17998D1*
Y18299D1*
X10339Y18057D2*
X10368Y18071D1*
X10397Y18100D1*
X10411Y18129D1*
Y18186D1*
X10397Y18215D1*
X10368Y18243D1*
X10339Y18258D1*
X10296Y18272D1*
X10224D1*
X10182Y18258D1*
X10153Y18243D1*
X10124Y18215D1*
X10110Y18186D1*
Y18129D1*
X10124Y18100D1*
X10153Y18071D1*
X10182Y18057D1*
X10224D1*
Y18129D1*
X10411Y17763D2*
X10110D1*
X10411Y17964D1*
X10110D1*
X10411Y17671D2*
X10110D1*
Y17570D1*
X10124Y17527D1*
X10153Y17498D1*
X10182Y17484D1*
X10224Y17470D1*
X10296D1*
X10339Y17484D1*
X10368Y17498D1*
X10397Y17527D1*
X10411Y17570D1*
Y17671D1*
X11119Y17998D2*
X11306D1*
Y18299D1*
Y18142D2*
X11191D1*
X11012Y18070D2*
Y18056D1*
X10998Y18027D1*
X10984Y18013D1*
X10955Y17998D1*
X10897D1*
X10869Y18013D1*
X10855Y18027D1*
X10840Y18056D1*
Y18084D1*
X10855Y18113D1*
X10883Y18156D1*
X11027Y18299D1*
X10826D1*
X11810D2*
X11925Y17998D1*
X12040Y18299D1*
X11996Y18199D2*
X11853D1*
X11703Y18070D2*
Y18056D1*
X11688Y18027D1*
X11674Y18013D1*
X11645Y17998D1*
X11588D1*
X11559Y18013D1*
X11545Y18027D1*
X11530Y18056D1*
Y18084D1*
X11545Y18113D1*
X11574Y18156D1*
X11717Y18299D1*
X11516D1*
X14959D2*
X15074Y17998D1*
X15189Y18299D1*
X15146Y18199D2*
X15002D1*
X14852Y18070D2*
Y18056D1*
X14838Y18027D1*
X14823Y18013D1*
X14795Y17998D1*
X14737D1*
X14709Y18013D1*
X14694Y18027D1*
X14680Y18056D1*
Y18084D1*
X14694Y18113D1*
X14723Y18156D1*
X14867Y18299D1*
X14666D1*
X16532Y17998D2*
X16719D1*
Y18299D1*
Y18142D2*
X16604D1*
X16411Y17998D2*
X16253D1*
X16339Y18113D1*
X16296D1*
X16267Y18127D1*
X16253Y18142D1*
X16238Y18185D1*
Y18213D1*
X16253Y18256D1*
X16282Y18285D1*
X16325Y18299D1*
X16368D1*
X16411Y18285D1*
X16425Y18271D1*
X16439Y18242D1*
X17418Y17998D2*
X17605D1*
Y18299D1*
Y18142D2*
X17490D1*
X17297Y17998D2*
X17139D1*
X17225Y18113D1*
X17182D1*
X17153Y18127D1*
X17139Y18142D1*
X17125Y18185D1*
Y18213D1*
X17139Y18256D1*
X17168Y18285D1*
X17211Y18299D1*
X17254D1*
X17297Y18285D1*
X17311Y18271D1*
X17326Y18242D1*
X26442Y17899D2*
X26628D1*
Y18201D1*
Y18043D2*
X26514D1*
X26349Y17957D2*
X26320Y17942D1*
X26277Y17900D1*
Y18201D1*
X27228Y17899D2*
X27415D1*
Y18201D1*
Y18043D2*
X27300D1*
X27136Y17957D2*
X27107Y17942D1*
X27064Y17900D1*
Y18201D1*
X28805Y17971D2*
X28819Y17942D1*
X28848Y17914D1*
X28877Y17899D1*
X28934D1*
X28963Y17914D1*
X28991Y17942D1*
X29006Y17971D1*
X29020Y18014D1*
Y18086D1*
X29006Y18129D1*
X28991Y18158D1*
X28963Y18186D1*
X28934Y18201D1*
X28877D1*
X28848Y18186D1*
X28819Y18158D1*
X28805Y18129D1*
Y18086D1*
X28877D1*
X28712Y17957D2*
X28684Y17942D1*
X28640Y17900D1*
Y18201D1*
X31166Y18299D2*
X31281Y17998D1*
X31396Y18299D1*
X31353Y18199D2*
X31209D1*
X31073Y18056D2*
X31044Y18041D1*
X31001Y17998D1*
Y18299D1*
X32089Y18057D2*
X32118Y18071D1*
X32147Y18100D1*
X32161Y18129D1*
Y18186D1*
X32147Y18215D1*
X32118Y18243D1*
X32089Y18258D1*
X32046Y18272D1*
X31974D1*
X31932Y18258D1*
X31903Y18243D1*
X31874Y18215D1*
X31860Y18186D1*
Y18129D1*
X31874Y18100D1*
X31903Y18071D1*
X31932Y18057D1*
X31974D1*
Y18129D1*
X32161Y17763D2*
X31860D1*
X32161Y17964D1*
X31860D1*
X32161Y17671D2*
X31860D1*
Y17570D1*
X31874Y17527D1*
X31903Y17498D1*
X31932Y17484D1*
X31974Y17470D1*
X32046D1*
X32089Y17484D1*
X32118Y17498D1*
X32147Y17527D1*
X32161Y17570D1*
Y17671D1*
X32869Y17998D2*
X33056D1*
Y18299D1*
Y18142D2*
X32941D1*
X32762Y18070D2*
Y18056D1*
X32748Y18027D1*
X32734Y18013D1*
X32705Y17998D1*
X32647D1*
X32619Y18013D1*
X32605Y18027D1*
X32590Y18056D1*
Y18084D1*
X32605Y18113D1*
X32633Y18156D1*
X32777Y18299D1*
X32576D1*
X33560D2*
X33675Y17998D1*
X33790Y18299D1*
X33746Y18199D2*
X33603D1*
X33453Y18070D2*
Y18056D1*
X33438Y18027D1*
X33424Y18013D1*
X33395Y17998D1*
X33338D1*
X33309Y18013D1*
X33295Y18027D1*
X33280Y18056D1*
Y18084D1*
X33295Y18113D1*
X33324Y18156D1*
X33467Y18299D1*
X33266D1*
X36709D2*
X36824Y17998D1*
X36939Y18299D1*
X36896Y18199D2*
X36752D1*
X36602Y18070D2*
Y18056D1*
X36588Y18027D1*
X36573Y18013D1*
X36545Y17998D1*
X36487D1*
X36459Y18013D1*
X36444Y18027D1*
X36430Y18056D1*
Y18084D1*
X36444Y18113D1*
X36473Y18156D1*
X36617Y18299D1*
X36416D1*
X38282Y17998D2*
X38469D1*
Y18299D1*
Y18142D2*
X38354D1*
X38161Y17998D2*
X38003D1*
X38089Y18113D1*
X38046D1*
X38017Y18127D1*
X38003Y18142D1*
X37988Y18185D1*
Y18213D1*
X38003Y18256D1*
X38032Y18285D1*
X38075Y18299D1*
X38118D1*
X38161Y18285D1*
X38175Y18271D1*
X38189Y18242D1*
X39168Y17998D2*
X39355D1*
Y18299D1*
Y18142D2*
X39240D1*
X39047Y17998D2*
X38889D1*
X38975Y18113D1*
X38932D1*
X38903Y18127D1*
X38889Y18142D1*
X38875Y18185D1*
Y18213D1*
X38889Y18256D1*
X38918Y18285D1*
X38961Y18299D1*
X39004D1*
X39047Y18285D1*
X39061Y18271D1*
X39076Y18242D1*
M02*
